# Blender v2.90.0 OBJ File: ''
# www.blender.org
mtllib mini-museo.mtl
o Plane
v -10.114512 0.000000 10.114512
v 10.114512 0.000000 10.114512
v -10.114512 0.000000 -10.114512
v 10.114512 0.000000 -10.114512
v -31.477812 4.497106 -31.477812
v -31.477812 4.497106 31.477812
v 31.477812 4.497106 31.477812
v 31.477812 4.497106 -31.477812
vt 0.000000 0.000000
vt 0.000000 1.000000
vt 1.000000 1.000000
vt 1.000000 0.000000
vt 1.000000 1.000000
vt 1.000000 0.000000
vt 0.000000 0.000000
vt 0.000000 1.000000
vn 0.0000 -1.0000 0.0000
vn 0.2060 -0.9786 0.0000
vn -0.2060 -0.9786 0.0000
vn 0.0000 -0.9786 -0.2060
vn 0.0000 -0.9786 0.2060
usemtl None
s off
f 1/1/1 3/2/1 4/3/1 2/4/1
f 2/4/2 4/3/2 8/5/2 7/6/2
f 3/2/3 1/1/3 6/7/3 5/8/3
f 4/3/4 3/2/4 5/8/4 8/5/4
f 1/1/5 2/4/5 7/6/5 6/7/5
